<?xml version="1.0" encoding="UTF-8"?>
<svg width="64px" height="64px" viewBox="0 0 64 64" version="1.1" xmlns="http://www.w3.org/2000/svg" xmlns:xlink="http://www.w3.org/1999/xlink">
    <title>logo</title>
    <g id="Page-1" stroke="none" stroke-width="1" fill="none" fill-rule="evenodd">
        <g id="logo" fill-rule="nonzero">
            <circle id="Oval" fill="#E8B931" cx="32" cy="32" r="32"></circle>
            <path d="M34.1194029,21.375 C34.1194029,21.9386 33.89695,22.4791 33.5009557,22.8776 C33.1049614,23.2761 32.5678335,23.5 32.0078002,23.5 C31.4477669,23.5 30.910639,23.2761 30.5146447,22.8776 C30.1186505,22.4791 29.8961975,21.9386 29.8961975,21.375 C29.8961975,20.8114 30.1186505,20.2709 30.5146447,19.8724 C30.910639,19.4739 31.4477669,19.25 32.0078002,19.25 C32.5678335,19.25 33.1049614,19.4739 33.5009557,19.8724 C33.89695,20.2709 34.1194029,20.8114 34.1194029,21.375 Z M35.5117344,26.6875 C37.2208413,25.5453 38.3427084,23.593 38.3427084,21.375 C38.3427084,17.8555 35.5051328,15 32.0078002,15 C28.5104676,15 25.6729921,17.8555 25.6729921,21.375 C25.6729921,23.593 26.7947591,25.5453 28.503866,26.6875 L27.7845948,26.6875 C26.6166167,26.6875 25.6729921,27.6371 25.6729921,28.8125 C25.6729921,29.9879 26.6166167,30.9375 27.7845948,30.9375 L29.8961975,30.9375 L29.8961975,44.75 L26.7287434,44.75 C23.2314108,44.75 20.3939353,41.8945 20.3939353,38.375 L20.3939353,37.9699 L20.8558452,38.4348 C21.4761929,39.059 22.4791317,39.059 23.0928778,38.4348 C23.7065239,37.8105 23.7131255,36.8012 23.0928778,36.1836 L19.4040996,32.4648 C18.783852,31.8406 17.7808132,31.8406 17.1671671,32.4648 L13.4651857,36.1836 C12.8449381,36.8078 12.8449381,37.8172 13.4651857,38.4348 C14.0855334,39.0523 15.0884722,39.059 15.7022183,38.4348 L16.1641283,37.9699 L16.1641283,38.375 C16.1641283,44.2453 20.8888531,49 26.7221418,49 L32.0011986,49 L37.2802554,49 C43.1135442,49 47.838369,44.2453 47.838369,38.375 L47.838369,37.9699 L48.300279,38.4348 C48.9205266,39.059 49.9235654,39.059 50.5372115,38.4348 C51.1509576,37.8105 51.1575592,36.8012 50.5372115,36.1836 L46.8419318,32.4648 C46.2215841,31.8406 45.2186453,31.8406 44.6048992,32.4648 L40.9096195,36.1836 C40.2892718,36.8078 40.2892718,37.8172 40.9096195,38.4348 C41.5298671,39.0523 42.5329059,39.059 43.146552,38.4348 L43.608462,37.9699 L43.608462,38.375 C43.608462,41.8945 40.7709865,44.75 37.2736538,44.75 L34.1061998,44.75 L34.1061998,30.9375 L36.2178025,30.9375 C37.3858806,30.9375 38.3295052,29.9879 38.3295052,28.8125 C38.3295052,27.6371 37.3858806,26.6875 36.2178025,26.6875 L35.4985312,26.6875 L35.5117344,26.6875 Z" id="Shape" fill="#B3261E"></path>
        </g>
    </g>
</svg>