<svg width="35" height="40" viewBox="0 0 35 40" fill="none" xmlns="http://www.w3.org/2000/svg">
<path d="M0 7.5C0 6.11719 1.11719 5 2.5 5H32.5C33.8828 5 35 6.11719 35 7.5C35 8.88281 33.8828 10 32.5 10H2.5C1.11719 10 0 8.88281 0 7.5ZM0 20C0 18.6172 1.11719 17.5 2.5 17.5H32.5C33.8828 17.5 35 18.6172 35 20C35 21.3828 33.8828 22.5 32.5 22.5H2.5C1.11719 22.5 0 21.3828 0 20ZM35 32.5C35 33.8828 33.8828 35 32.5 35H2.5C1.11719 35 0 33.8828 0 32.5C0 31.1172 1.11719 30 2.5 30H32.5C33.8828 30 35 31.1172 35 32.5Z" fill="#E8B931"/>
</svg>
