<?xml version="1.0" encoding="UTF-8"?>
<svg width="19px" height="17px" viewBox="0 0 19 17" version="1.1" xmlns="http://www.w3.org/2000/svg" xmlns:xlink="http://www.w3.org/1999/xlink">
    <title>Path</title>
    <g id="Page-1" stroke="none" stroke-width="1" fill="none" fill-rule="evenodd">
        <g id="arrow-left-short" transform="translate(0.748050, 0.842290)" fill="#FFFFFF">
            <path d="M17.50195,7.65761 C17.50195,7.94771 17.38675,8.22591 17.18165,8.43101 C16.97645,8.63611 16.69825,8.75141 16.40825,8.75141 L3.73605,8.75141 L8.43255,13.44571 C8.53425,13.54741 8.61495,13.66821 8.66995,13.80101 C8.72505,13.93391 8.75335,14.07631 8.75335,14.22011 C8.75335,14.36391 8.72505,14.50631 8.66995,14.63921 C8.61495,14.77211 8.53425,14.89281 8.43255,14.99451 C8.33085,15.09621 8.21015,15.17691 8.07725,15.23191 C7.94445,15.28691 7.80205,15.31521 7.65825,15.31521 C7.51435,15.31521 7.37195,15.28691 7.23915,15.23191 C7.10625,15.17691 6.98555,15.09621 6.88385,14.99451 L0.32133,8.43201 C0.21947,8.33041 0.13866,8.20971 0.08352,8.07681 C0.02838,7.94391 0,7.80151 0,7.65761 C0,7.51381 0.02838,7.37131 0.08352,7.23841 C0.13866,7.10551 0.21947,6.98481 0.32133,6.88321 L6.88385,0.32071 C7.08925,0.11538 7.36775,1.77635684e-15 7.65825,1.77635684e-15 C7.94865,1.77635684e-15 8.22725,0.11538 8.43255,0.32071 C8.63795,0.52611 8.75335,0.80471 8.75335,1.09511 C8.75335,1.38561 8.63795,1.66411 8.43255,1.86951 L3.73605,6.56391 L16.40825,6.56391 C16.69825,6.56391 16.97645,6.67911 17.18165,6.88421 C17.38675,7.08931 17.50195,7.36751 17.50195,7.65761 Z" id="Path"></path>
        </g>
    </g>
</svg>